<?xml version="1.0" encoding="UTF-8"?>
<svg id="Layer_1" data-name="Layer 1" xmlns="http://www.w3.org/2000/svg" viewBox="0 0 1014.62 1015.31">
  <defs>
    <style>
      .cls-1 {
        fill: #f06619;
      }
    </style>
  </defs>
  <path class="cls-1" d="M497.4,844.33c-24.19,3.15-45.06,9.03-65.52,19.32l-113.35-253.65-133.43-301.65L48.99,1.58l361.91-.04,29.49,292.06,43.25,420.02,13.77,130.72Z"/>
  <path class="cls-1" d="M779.03,409.4l-180.15,454.05c-19.94-9.78-40.92-16.11-64.95-18.55L621.7,1.54l317.35-.02-62.51,160.42-97.51,247.46Z"/>
  <path class="cls-1" d="M355.07,923.87l-150.76-105.65L3.06,678.15c-.84-2.79-.66-6.54-.66-10.08v-305.71c.01-7.8-.77-13.52.61-21.68l56.6,75.91,212.36,287.08,130.42,177.52c-16.03,12.29-29.57,24.6-40.43,41.27-1.21,1.85-4.63,2.54-6.9,1.41Z"/>
  <path class="cls-1" d="M672.39,926.75c-12.69-17.65-26.33-32.47-43.65-45.43l13.2-19.4,199.16-279.66,172.39-242.18.32,338.16-221.45,161.44-119.97,87.07Z"/>
  <path class="cls-1" d="M326.87,1015.38L2.73,990.41l-.35-11.49-.02-153.57c0-4.41-.84-7.62,1.27-11l202.03,84.37,136.55,57.6c-8.44,19.26-13.15,36.71-15.34,59.06Z"/>
  <path class="cls-1" d="M703.63,1015.55c-2.08-20.56-6.67-39.2-14.63-58.88l324.66-142.55.08,176.37-310.11,25.06Z"/>
</svg>